HIERARCHY
ROOT pelvis
{
  OFFSET 0 100 0
  CHANNELS 6 Xposition Yposition Zposition Zrotation Xrotation Yrotation
  JOINT pelvis_right_femur
  {
    OFFSET -10.78128 -3.44521 -0.5502486
    CHANNELS 3 Zrotation Xrotation Yrotation
    JOINT right_femur_tibia
    {
      OFFSET -0.8047443 -44.0398 -0.1307829
      CHANNELS 3 Zrotation Xrotation Yrotation
      JOINT right_tibia_foot
      {
        OFFSET 3.006224 -47.83518 -5
        CHANNELS 3 Zrotation Xrotation Yrotation
        End Site
        {
          OFFSET 0 -5 15
        }
      }
    }
  }
  JOINT pelvis_left_femur
  {
    OFFSET 10.78128 -3.44521 -0.5502486
    CHANNELS 3 Zrotation Xrotation Yrotation
    JOINT left_femur_tibia
    {
      OFFSET 0.8047443 -44.0398 -0.1307829
      CHANNELS 3 Zrotation Xrotation Yrotation
      JOINT left_tibia_foot
      {
        OFFSET -4.370144 -48.10324 -4.275266
        CHANNELS 3 Zrotation Xrotation Yrotation
        End Site
        {
          OFFSET 0 -5 15
        }
      }
    }
  }
  JOINT pelvis_spine1
  {
    OFFSET 0 6.468898 -3.129235
    CHANNELS 3 Zrotation Xrotation Yrotation
    JOINT spine1
    {
      OFFSET 0 23.15396 4.99043
      CHANNELS 3 Zrotation Xrotation Yrotation
      JOINT spine2
      {
        OFFSET 0 20.79997 -5.064912
        CHANNELS 3 Zrotation Xrotation Yrotation
        JOINT neck
        {
          OFFSET 0 14.38658 9.616178
          CHANNELS 3 Zrotation Xrotation Yrotation
          End Site
          {
            OFFSET 0 20 0
          }
        }
      }
      JOINT right_manubrium
      {
        OFFSET -5.722621 16.35077 3.967754
        CHANNELS 3 Zrotation Xrotation Yrotation
        JOINT right_clavicle
        {
          OFFSET -13.16364 1.694482 -4.693211
          CHANNELS 3 Zrotation Xrotation Yrotation
          JOINT right_humerus
          {
            OFFSET -28.5034 -0.3100689 -2.792744
            CHANNELS 3 Zrotation Xrotation Yrotation
            JOINT right_radius
            {
              OFFSET -25.15693 0.02248979 -1.271978
              CHANNELS 3 Zrotation Xrotation Yrotation
              End Site
              {
                OFFSET -15 0 0
              }
            }
          }
        }
      }
      JOINT left_manubrium
      {
        OFFSET 5.722621 16.35077 3.967754
        CHANNELS 3 Zrotation Xrotation Yrotation
        JOINT left_clavicle
        {
          OFFSET 13.16364 1.694482 -4.693211
          CHANNELS 3 Zrotation Xrotation Yrotation
          JOINT left_humerus
          {
            OFFSET 29.39168 -1.063119 -2.237045
            CHANNELS 3 Zrotation Xrotation Yrotation
            JOINT left_radius
            {
              OFFSET 24.59957 -0.9528479 0.9047498
              CHANNELS 3 Zrotation Xrotation Yrotation
              End Site
              {
                OFFSET 15 -0 -0
              }
            }
          }
        }
      }
    }
  }
}
MOTION
Frames: 15
Frame Time: 0.0416666666667
0 103.5113 0 0.3871053 -3.948886 0.1018811 3.43021 -15.37669 3.611443 -3.493844e-10 24.6086 4.138162e-10 -4.920491 -5.78208 -4.451947 -4.853916 7.667566 -12.20448 4.095696e-11 21.68079 -3.340039e-10 -0.9016625 -15.13584 17.53837 -1.883864 -1.122354 4.001309 1.364597 10.09339 -7.023607 1.665727 22.04315 5.793068 2.397812 -20.47919 7.893922 2.874711 -17.39607 10.63775 86.99647 29.10982 -18.71724 4.496177e-11 -1.244944e-10 11.6598 -15.86854 11.19579 7.533112 5.590002 -20.98327 -4.060156 -86.63377 23.49177 14.81034 -5.80647e-11 -7.32468e-11 -20.07817 5.818308 13.13295 7.07659
0.06145769 103.496 4.659853 0.3716159 -3.806921 0.1983277 3.50253 -17.00292 3.602969 -2.981744e-10 24.59643 3.877611e-10 -5.011372 -5.539057 -4.584255 -4.997753 9.12442 -12.48541 5.542217e-11 21.65 -3.310171e-10 -0.8084554 -15.64941 17.47713 -1.923129 -1.15599 3.822984 1.478038 10.09101 -7.243403 1.647021 22.13148 5.89777 2.45008 -20.68112 7.996629 2.963064 -17.21976 10.66743 87.80027 29.28282 -19.55448 4.947398e-11 -1.262982e-10 11.19601 -15.62879 11.20868 7.33011 5.710884 -21.30797 -4.097516 -86.72132 23.62621 14.28323 -5.751721e-11 -7.254083e-11 -20.84539 6.005976 13.28676 6.903496
0.08591908 103.4812 9.289782 0.3527546 -3.632627 0.3212187 3.577464 -18.85428 3.585935 -2.376446e-10 24.52315 3.563292e-10 -5.103769 -5.2433 -4.726037 -5.147934 10.79662 -12.78129 7.194625e-11 21.56214 -3.266524e-10 -0.7046231 -16.2095 17.36394 -1.964416 -1.192045 3.606354 1.604789 10.06378 -7.481115 1.623838 22.18086 6.005368 2.501429 -20.86674 8.095004 3.054292 -16.97403 10.67386 88.4998 29.45327 -20.43014 5.455995e-11 -1.281544e-10 10.62953 -15.31002 11.19821 7.072392 5.838961 -21.63416 -4.132552 -86.5962 23.763 13.59447 -5.67024e-11 -7.158542e-11 -21.68785 6.212226 13.43231 6.686228
0.07139574 103.4659 13.87774 0.3317099 -3.435547 0.4728522 3.650791 -20.8295 3.561745 -1.712107e-10 24.39282 3.213799e-10 -5.192434 -4.910994 -4.869439 -5.294961 12.59264 -13.07609 8.962605e-11 21.42205 -3.211236e-10 -0.5966059 -16.78569 17.20506 -2.005508 -1.22851 3.363275 1.737747 10.0131 -7.723637 1.597574 22.18862 6.109924 2.548947 -21.02593 8.183605 3.143529 -16.67239 10.65661 89.05725 29.6142 -21.29617 5.993841e-11 -1.299805e-10 9.991387 -14.92992 11.16417 6.774309 5.967271 -21.94403 -4.163332 -86.26526 23.89114 12.78022 -5.565971e-11 -7.04401e-11 -22.5595 6.425863 13.5614 6.43669
0.01820426 103.4493 18.41633 0.3096996 -3.226748 0.6542665 3.721532 -22.84931 3.534107 -1.021827e-10 24.2254 2.848763e-10 -5.276285 -4.560175 -5.010746 -5.434029 14.43708 -13.36394 1.077403e-10 21.24847 -3.148699e-10 -0.4888347 -17.36116 17.01789 -2.045658 -1.264425 3.106879 1.872035 9.946956 -7.964256 1.569805 22.16714 6.210091 2.592778 -21.1633 8.263499 3.229624 -16.33816 10.62305 89.50522 29.76519 -22.13768 6.5401e-11 -1.317748e-10 9.316737 -14.5153 11.11331 6.454646 6.093066 -22.23592 -4.190331 -85.79773 24.00624 11.89412 -5.447315e-11 -6.919619e-11 -23.43302 6.640315 13.6759 6.169801
-0.06825792 103.4305 22.89993 0.2893289 -3.024822 0.8634586 3.778883 -24.69514 3.501885 -3.741049e-11 24.02052 2.503165e-10 -5.343125 -4.223001 -5.132183 -5.549825 16.13429 -13.60733 1.243517e-10 21.04373 -3.08257e-10 -0.3938945 -17.86599 16.80843 -2.079399 -1.295275 2.860688 1.99229 9.865116 -8.172974 1.543138 22.10283 6.291318 2.625278 -21.25026 8.320004 3.300657 -15.99355 10.5685 89.72465 29.89048 -22.8376 7.034899e-11 -1.332654e-10 8.666615 -14.09703 11.04329 6.140039 6.199753 -22.46468 -4.208762 -85.17424 24.08633 11.00332 -5.321352e-11 -6.793823e-11 -24.20424 6.829626 13.75445 5.908608
-0.1817426 103.4092 27.33048 0.2715176 -2.839113 1.097805 3.82752 -26.3525 3.471084 2.127891e-11 23.81613 2.189939e-10 -5.398981 -3.913692 -5.238034 -5.646939 17.6628 -13.81839 1.392952e-10 20.84175 -3.019347e-10 -0.3109475 -18.31124 16.60539 -2.108593 -1.322141 2.634951 2.099107 9.783048 -8.355854 1.518772 22.02747 6.360136 2.651483 -21.31314 8.364236 3.361657 -15.66873 10.51003 89.84838 29.99836 -23.43956 7.476888e-11 -1.345725e-10 8.06965 -13.70631 10.96997 5.849091 6.292323 -22.65511 -4.222723 -84.53759 24.14274 10.1703 -5.200683e-11 -6.677074e-11 -24.88606 6.997109 13.81434 5.667202
-0.3087783 103.3832 31.72824 0.2619799 -2.70795 1.351098 3.869143 -27.58295 3.455865 6.358489e-11 23.697 1.967704e-10 -5.445757 -3.69431 -5.32094 -5.718366 18.7905 -13.98756 1.503567e-10 20.72077 -2.977508e-10 -0.2488204 -18.65552 16.47968 -2.132288 -1.343153 2.474803 2.17963 9.73507 -8.498442 1.501563 21.99958 6.417674 2.675892 -21.38402 8.407608 3.411897 -15.45227 10.48122 90.06494 30.08147 -23.93229 7.805988e-11 -1.357041e-10 7.647571 -13.4414 10.92813 5.647677 6.366348 -22.82043 -4.236417 -84.18887 24.19379 9.600656 -5.120631e-11 -6.600217e-11 -25.40924 7.126276 13.8743 5.498368
-0.4312341 103.3511 36.12084 0.2645985 -2.653069 1.614191 3.899938 -28.20786 3.460099 8.303421e-11 23.6943 1.870307e-10 -5.479444 -3.601135 -5.370986 -5.757766 19.35058 -14.09528 1.559088e-10 20.71069 -2.965795e-10 -0.2148332 -18.8543 16.45983 -2.147798 -1.355819 2.406674 2.22299 9.733933 -8.583137 1.494248 22.03515 6.458395 2.697058 -21.46292 8.448292 3.445871 -15.38603 10.49269 90.39312 30.12894 -24.26243 7.975833e-11 -1.365178e-10 7.470633 -13.35096 10.93105 5.570661 6.413273 -22.94681 -4.249526 -84.23066 24.24428 9.399867 -5.097978e-11 -6.576963e-11 -25.70508 7.20016 13.93282 5.431198
-0.5277244 103.3124 40.53492 0.2821415 -2.685951 1.87565 3.909705 -28.06483 3.479483 7.500677e-11 23.79774 1.919466e-10 -5.489628 -3.654954 -5.373797 -5.756416 19.19987 -14.10913 1.545219e-10 20.80437 -2.985584e-10 -0.2178075 -18.85123 16.54245 -2.150388 -1.356516 2.445764 2.217547 9.775651 -8.585653 1.498422 22.11551 6.469548 2.707789 -21.52118 8.472151 3.453149 -15.4789 10.53662 90.70484 30.12837 -24.32849 7.94232e-11 -1.367391e-10 7.577702 -13.45003 10.97393 5.63317 6.419098 -22.99332 -4.257623 -84.61046 24.27751 9.603982 -5.135581e-11 -6.60975e-11 -25.69098 7.197803 13.9696 5.479743
-0.5754684 103.2667 45.00209 0.3168758 -2.816364 2.123208 3.899246 -27.09922 3.518243 3.683578e-11 24.03219 2.131592e-10 -5.477593 -3.871708 -5.328424 -5.712695 18.28396 -14.02901 1.45692e-10 21.02457 -3.041798e-10 -0.2600749 -18.63924 16.74784 -2.140183 -1.34499 2.603658 2.160475 9.870238 -8.503747 1.515389 22.25872 6.452422 2.709919 -21.5702 8.483533 3.434696 -15.75529 10.62321 91.06408 30.0802 -24.13574 7.691954e-11 -1.364044e-10 8.00019 -13.76561 11.06618 5.8531 6.383683 -22.96698 -4.262281 -85.41855 24.29377 10.26783 -5.242887e-11 -6.707584e-11 -25.35388 7.116113 13.99143 5.657919
-0.5525954 103.2151 49.54319 0.3682174 -3.036061 2.344246 3.856996 -25.26642 3.566201 -3.116224e-11 24.34152 2.502326e-10 -5.430639 -4.240219 -5.223243 -5.615824 16.57521 -13.82662 1.290969e-10 21.32196 -3.125332e-10 -0.3483559 -18.18139 17.03487 -2.112816 -1.318275 2.872345 2.045874 9.994833 -8.319148 1.544489 22.41377 6.392791 2.693343 -21.56255 8.461323 3.380298 -16.17746 10.72602 91.23801 29.97752 -23.58424 7.208817e-11 -1.352796e-10 8.714284 -14.26189 11.18168 6.212115 6.294667 -22.81745 -4.256326 -86.43949 24.25432 11.31655 -5.402597e-11 -6.858793e-11 -24.64332 6.942016 13.96607 5.952302
-0.4380353 103.1588 54.17938 0.4361887 -3.345355 2.526374 3.783932 -22.56929 3.627159 -1.293681e-10 24.72848 3.036935e-10 -5.348417 -4.760794 -5.058318 -5.458038 14.0757 -13.50385 1.047694e-10 21.69896 -3.235713e-10 -0.4849621 -17.48044 17.40627 -2.068716 -1.276333 3.252124 1.873524 10.15001 -8.032472 1.585987 22.58314 6.291253 2.658623 -21.50059 8.406634 3.291031 -16.74731 10.84598 91.24366 29.82015 -22.68164 6.492019e-11 -1.334644e-10 9.720972 -14.94138 11.31826 6.712016 6.152825 -22.54735 -4.239615 -87.6843 24.14653 12.74903 -5.613438e-11 -7.066938e-11 -23.56204 6.676778 13.89399 6.363131
-0.2090819 103.0993 58.92833 0.5215747 -3.750761 2.655688 3.670756 -18.87455 3.701971 -2.615892e-10 25.17008 3.756402e-10 -5.217891 -5.44556 -4.81862 -5.213849 10.67158 -13.02783 7.155285e-11 22.13677 -3.370295e-10 -0.6820284 -16.48541 17.85017 -2.003508 -1.215292 3.752101 1.632383 10.32551 -7.620148 1.641138 22.73891 6.134299 2.597909 -21.34995 8.303371 3.156496 -17.46133 10.96917 90.93223 29.58945 -21.3291 5.50081e-11 -1.308319e-10 11.04276 -15.80628 11.46058 7.359829 5.944564 -22.11253 -4.205726 -89.05405 23.93524 14.5649 -5.869501e-11 -7.335289e-11 -22.03463 6.302571 13.74935 6.896253
0.1439922 103.0429 63.79273 0.6138729 -4.203521 2.723631 3.529189 -14.60316 3.78685 -4.126589e-10 25.60338 4.579889e-10 -5.049862 -6.2121 -4.528432 -4.892758 6.754293 -12.44369 3.323537e-11 22.57429 -3.510696e-10 -0.9207768 -15.30543 18.30883 -1.924225 -1.1413 4.312375 1.348795 10.49515 -7.126104 1.703418 22.85237 5.937272 2.51672 -21.11827 8.159614 2.990003 -18.22872 11.0749 90.30313 29.29723 -19.66798 4.344197e-11 -1.277687e-10 12.52088 -16.74872 11.5831 8.076469 5.691756 -21.55338 -4.155772 -90.34312 23.63259 16.53225 -6.134384e-11 -7.634026e-11 -20.2285 5.861835 13.54064 7.485621
